<svg width="995" height="258" viewBox="0 0 995 258" fill="none" xmlns="http://www.w3.org/2000/svg">
<path d="M217.556 92.4629V189.525C217.556 194.111 213.83 197.837 209.244 197.837H192.538C187.952 197.837 184.226 194.111 184.226 189.525V92.4629C184.226 89.5353 181.852 87.1809 178.944 87.1809H149.975C145.062 87.1809 141.069 83.1886 141.069 78.2751V68.9599C141.069 64.0464 145.062 60.0542 149.975 60.0542H251.951C256.864 60.0542 260.857 64.0464 260.857 68.9599V78.2751C260.857 83.1886 256.864 87.1809 251.951 87.1809H222.879C219.931 87.1604 217.556 89.5353 217.556 92.4629Z" fill="white"></path>
<path d="M287.349 180.026C272.956 166.473 265.709 149.378 265.709 128.885C265.709 108.391 272.956 91.2962 287.349 77.7431C301.741 64.19 319.758 57.4544 341.398 57.4544C362.833 57.4544 380.849 64.2924 395.221 77.8455C409.614 91.501 416.861 108.494 416.861 128.885C416.861 149.276 409.614 166.248 395.221 179.924C380.829 193.579 362.812 200.417 341.398 200.417C319.758 200.417 301.741 193.6 287.349 180.026ZM341.398 170.506C353.088 170.506 363.037 166.575 371.104 158.714C379.068 150.852 383.121 140.902 383.121 128.905C383.121 116.887 379.088 106.958 371.104 99.0964C363.037 91.3372 353.088 87.4064 341.398 87.4064C329.708 87.4064 319.758 91.3372 311.691 99.0964C303.625 106.958 299.571 116.908 299.571 128.905C299.571 140.902 303.604 150.852 311.691 158.714C319.758 166.575 329.708 170.506 341.398 170.506Z" fill="white"></path>
<path d="M453.446 179.924C439.054 166.268 431.909 149.276 431.909 128.885C431.909 108.494 439.054 91.501 453.446 77.8455C467.736 64.2924 485.548 57.4544 506.758 57.4544C518.346 57.4544 529.114 59.8293 539.167 64.5995C545.206 67.5271 550.652 71.0485 555.504 75.225C560.643 79.6267 560.663 87.5906 555.525 91.9719L548.482 97.9909C544.838 101.103 539.535 100.878 535.891 97.7452C527.845 90.8459 518.12 87.3859 506.758 87.3859C495.17 87.3859 485.425 91.3167 477.461 99.076C469.497 106.938 465.546 116.887 465.546 128.885C465.546 140.882 469.477 150.832 477.461 158.693C485.425 166.555 495.17 170.486 506.758 170.486C518.653 170.486 528.766 166.678 537.017 159.123C539.924 156.462 544.326 156.318 547.335 158.878L557.776 167.742C561.503 170.916 561.789 176.689 558.268 180.067C545.001 192.781 526.965 200.417 506.348 200.417C485.425 200.417 467.839 193.6 453.446 179.924Z" fill="white"></path>
<path d="M651.808 92.4629V189.525C651.808 194.111 648.082 197.837 643.496 197.837H626.79C622.204 197.837 618.478 194.111 618.478 189.525V92.4629C618.478 89.5353 616.103 87.1809 613.196 87.1809H584.227C579.314 87.1809 575.321 83.1886 575.321 78.2751V68.9599C575.321 64.0464 579.314 60.0542 584.227 60.0542H686.203C691.116 60.0542 695.109 64.0464 695.109 68.9599V78.2751C695.109 83.1886 691.116 87.1809 686.203 87.1809H657.131C654.183 87.1604 651.808 89.5353 651.808 92.4629Z" fill="white"></path>
<path d="M721.601 180.026C707.208 166.473 699.961 149.378 699.961 128.885C699.961 108.391 707.208 91.2962 721.601 77.7431C735.993 64.19 754.01 57.4544 775.65 57.4544C797.085 57.4544 815.101 64.2924 829.473 77.8455C843.866 91.501 851.113 108.494 851.113 128.885C851.113 149.276 843.866 166.248 829.473 179.924C815.081 193.579 797.064 200.417 775.65 200.417C754.01 200.417 735.993 193.6 721.601 180.026ZM775.65 170.506C787.34 170.506 797.29 166.575 805.356 158.714C813.32 150.852 817.373 140.902 817.373 128.905C817.373 116.887 813.34 106.958 805.356 99.0964C797.29 91.3372 787.34 87.4064 775.65 87.4064C763.959 87.4064 754.01 91.3372 745.943 99.0964C737.877 106.958 733.823 116.908 733.823 128.905C733.823 140.902 737.856 150.852 745.943 158.714C754.01 166.575 763.939 170.506 775.65 170.506Z" fill="white"></path>
<path d="M887.698 179.924C873.306 166.268 866.161 149.276 866.161 128.885C866.161 108.494 873.306 91.501 887.698 77.8455C901.988 64.2924 919.8 57.4544 941.01 57.4544C952.598 57.4544 963.366 59.8293 973.419 64.5995C979.458 67.5271 984.904 71.0485 989.756 75.225C994.895 79.6267 994.915 87.5906 989.777 91.9719L982.734 97.9909C979.09 101.103 973.787 100.878 970.143 97.7452C962.097 90.8459 952.372 87.3859 941.01 87.3859C929.422 87.3859 919.677 91.3167 911.713 99.076C903.749 106.938 899.798 116.887 899.798 128.885C899.798 140.882 903.729 150.832 911.713 158.693C919.677 166.555 929.422 170.486 941.01 170.486C952.905 170.486 963.018 166.678 971.269 159.123C974.176 156.462 978.578 156.318 981.587 158.878L992.028 167.742C995.755 170.916 996.041 176.689 992.52 180.067C979.253 192.781 961.217 200.417 940.6 200.417C919.677 200.417 902.07 193.6 887.698 179.924Z" fill="white"></path>
<path d="M91.3199 131.937C94.0633 122.724 88.8017 113.02 79.5889 110.277L22.3874 93.2842C13.1746 90.5409 3.47037 95.8024 0.726991 105.015C-2.01639 114.228 3.24517 123.932 12.458 126.676L69.6595 143.668C78.8928 146.412 88.5766 141.15 91.3199 131.937Z" fill="#37FFDB"></path>
<path d="M96.9091 176.282C92.2617 167.847 81.6772 164.796 73.2628 169.423L40.5265 187.46C32.0916 192.107 29.0411 202.692 33.668 211.106C38.3154 219.541 48.8999 222.592 57.3143 217.965L90.0506 199.928C98.4855 195.301 101.556 184.717 96.9091 176.282Z" fill="#37FFDB"></path>
<path d="M88.8838 87.8588C95.0257 95.2496 106.02 96.2527 113.41 90.1108C120.801 83.9689 121.804 72.975 115.662 65.5842L66.3021 6.27399C60.1602 -1.11676 49.1662 -2.11992 41.7755 4.02198C34.3847 10.1639 33.3815 21.1579 39.5234 28.5486L88.8838 87.8588Z" fill="#37FFDB"></path>
<path d="M123.729 209.346C114.679 206.111 104.709 210.84 101.474 219.889L96.2128 234.609C92.9781 243.659 97.6869 253.629 106.756 256.864C115.805 260.098 125.776 255.39 129.011 246.32L134.272 231.6C137.507 222.551 132.798 212.601 123.729 209.346Z" fill="#37FFDB"></path>
</svg>